<?xml version="1.0" encoding="utf-8"?>
<svg xmlns="http://www.w3.org/2000/svg" xmlns:xlink="http://www.w3.org/1999/xlink" width="600" height="400" viewBox="0 0 2400 1600">
<defs>
  <clipPath id="clip470">
    <rect x="0" y="0" width="2400" height="1600"/>
  </clipPath>
</defs>
<path clip-path="url(#clip470)" d="M0 1600 L2400 1600 L2400 0 L0 0  Z" fill="#ffffff" fill-rule="evenodd" fill-opacity="1"/>
<defs>
  <clipPath id="clip471">
    <rect x="156" y="47" width="2197" height="1440"/>
  </clipPath>
</defs>
<path clip-path="url(#clip470)" d="M156.598 1486.45 L2352.76 1486.45 L2352.76 47.2441 L156.598 47.2441  Z" fill="#ffffff" fill-rule="evenodd" fill-opacity="1"/>
<polyline clip-path="url(#clip471)" style="stroke:#000000; stroke-linecap:round; stroke-linejoin:round; stroke-width:2; stroke-opacity:0.1; fill:none" points="197.394,1486.45 197.394,47.2441 "/>
<polyline clip-path="url(#clip471)" style="stroke:#000000; stroke-linecap:round; stroke-linejoin:round; stroke-width:2; stroke-opacity:0.1; fill:none" points="731.376,1486.45 731.376,47.2441 "/>
<polyline clip-path="url(#clip471)" style="stroke:#000000; stroke-linecap:round; stroke-linejoin:round; stroke-width:2; stroke-opacity:0.1; fill:none" points="1265.36,1486.45 1265.36,47.2441 "/>
<polyline clip-path="url(#clip471)" style="stroke:#000000; stroke-linecap:round; stroke-linejoin:round; stroke-width:2; stroke-opacity:0.1; fill:none" points="1799.34,1486.45 1799.34,47.2441 "/>
<polyline clip-path="url(#clip471)" style="stroke:#000000; stroke-linecap:round; stroke-linejoin:round; stroke-width:2; stroke-opacity:0.1; fill:none" points="2333.32,1486.45 2333.32,47.2441 "/>
<polyline clip-path="url(#clip471)" style="stroke:#000000; stroke-linecap:round; stroke-linejoin:round; stroke-width:2; stroke-opacity:0.1; fill:none" points="156.598,1200.68 2352.76,1200.68 "/>
<polyline clip-path="url(#clip471)" style="stroke:#000000; stroke-linecap:round; stroke-linejoin:round; stroke-width:2; stroke-opacity:0.1; fill:none" points="156.598,902.482 2352.76,902.482 "/>
<polyline clip-path="url(#clip471)" style="stroke:#000000; stroke-linecap:round; stroke-linejoin:round; stroke-width:2; stroke-opacity:0.1; fill:none" points="156.598,604.28 2352.76,604.28 "/>
<polyline clip-path="url(#clip471)" style="stroke:#000000; stroke-linecap:round; stroke-linejoin:round; stroke-width:2; stroke-opacity:0.1; fill:none" points="156.598,306.078 2352.76,306.078 "/>
<polyline clip-path="url(#clip470)" style="stroke:#000000; stroke-linecap:round; stroke-linejoin:round; stroke-width:4; stroke-opacity:1; fill:none" points="156.598,1486.45 2352.76,1486.45 "/>
<polyline clip-path="url(#clip470)" style="stroke:#000000; stroke-linecap:round; stroke-linejoin:round; stroke-width:4; stroke-opacity:1; fill:none" points="197.394,1486.45 197.394,1467.55 "/>
<polyline clip-path="url(#clip470)" style="stroke:#000000; stroke-linecap:round; stroke-linejoin:round; stroke-width:4; stroke-opacity:1; fill:none" points="731.376,1486.45 731.376,1467.55 "/>
<polyline clip-path="url(#clip470)" style="stroke:#000000; stroke-linecap:round; stroke-linejoin:round; stroke-width:4; stroke-opacity:1; fill:none" points="1265.36,1486.45 1265.36,1467.55 "/>
<polyline clip-path="url(#clip470)" style="stroke:#000000; stroke-linecap:round; stroke-linejoin:round; stroke-width:4; stroke-opacity:1; fill:none" points="1799.34,1486.45 1799.34,1467.55 "/>
<polyline clip-path="url(#clip470)" style="stroke:#000000; stroke-linecap:round; stroke-linejoin:round; stroke-width:4; stroke-opacity:1; fill:none" points="2333.32,1486.45 2333.32,1467.55 "/>
<path clip-path="url(#clip470)" d="M197.394 1517.37 Q193.783 1517.37 191.955 1520.93 Q190.149 1524.47 190.149 1531.6 Q190.149 1538.71 191.955 1542.27 Q193.783 1545.82 197.394 1545.82 Q201.029 1545.82 202.834 1542.27 Q204.663 1538.71 204.663 1531.6 Q204.663 1524.47 202.834 1520.93 Q201.029 1517.37 197.394 1517.37 M197.394 1513.66 Q203.205 1513.66 206.26 1518.27 Q209.339 1522.85 209.339 1531.6 Q209.339 1540.33 206.26 1544.94 Q203.205 1549.52 197.394 1549.52 Q191.584 1549.52 188.506 1544.94 Q185.45 1540.33 185.45 1531.6 Q185.45 1522.85 188.506 1518.27 Q191.584 1513.66 197.394 1513.66 Z" fill="#000000" fill-rule="nonzero" fill-opacity="1" /><path clip-path="url(#clip470)" d="M710.646 1544.91 L726.966 1544.91 L726.966 1548.85 L705.022 1548.85 L705.022 1544.91 Q707.684 1542.16 712.267 1537.53 Q716.873 1532.88 718.054 1531.53 Q720.299 1529.01 721.179 1527.27 Q722.082 1525.51 722.082 1523.82 Q722.082 1521.07 720.137 1519.33 Q718.216 1517.6 715.114 1517.6 Q712.915 1517.6 710.461 1518.36 Q708.031 1519.13 705.253 1520.68 L705.253 1515.95 Q708.077 1514.82 710.531 1514.24 Q712.984 1513.66 715.021 1513.66 Q720.392 1513.66 723.586 1516.35 Q726.781 1519.03 726.781 1523.52 Q726.781 1525.65 725.97 1527.57 Q725.183 1529.47 723.077 1532.07 Q722.498 1532.74 719.396 1535.95 Q716.295 1539.15 710.646 1544.91 Z" fill="#000000" fill-rule="nonzero" fill-opacity="1" /><path clip-path="url(#clip470)" d="M736.827 1514.29 L755.183 1514.29 L755.183 1518.22 L741.109 1518.22 L741.109 1526.7 Q742.128 1526.35 743.146 1526.19 Q744.165 1526 745.183 1526 Q750.97 1526 754.35 1529.17 Q757.73 1532.34 757.73 1537.76 Q757.73 1543.34 754.257 1546.44 Q750.785 1549.52 744.466 1549.52 Q742.29 1549.52 740.021 1549.15 Q737.776 1548.78 735.369 1548.04 L735.369 1543.34 Q737.452 1544.47 739.674 1545.03 Q741.896 1545.58 744.373 1545.58 Q748.378 1545.58 750.716 1543.48 Q753.054 1541.37 753.054 1537.76 Q753.054 1534.15 750.716 1532.04 Q748.378 1529.94 744.373 1529.94 Q742.498 1529.94 740.623 1530.35 Q738.771 1530.77 736.827 1531.65 L736.827 1514.29 Z" fill="#000000" fill-rule="nonzero" fill-opacity="1" /><path clip-path="url(#clip470)" d="M1240.06 1514.29 L1258.41 1514.29 L1258.41 1518.22 L1244.34 1518.22 L1244.34 1526.7 Q1245.36 1526.35 1246.38 1526.19 Q1247.39 1526 1248.41 1526 Q1254.2 1526 1257.58 1529.17 Q1260.96 1532.34 1260.96 1537.76 Q1260.96 1543.34 1257.49 1546.44 Q1254.01 1549.52 1247.69 1549.52 Q1245.52 1549.52 1243.25 1549.15 Q1241 1548.78 1238.6 1548.04 L1238.6 1543.34 Q1240.68 1544.47 1242.9 1545.03 Q1245.13 1545.58 1247.6 1545.58 Q1251.61 1545.58 1253.94 1543.48 Q1256.28 1541.37 1256.28 1537.76 Q1256.28 1534.15 1253.94 1532.04 Q1251.61 1529.94 1247.6 1529.94 Q1245.73 1529.94 1243.85 1530.35 Q1242 1530.77 1240.06 1531.65 L1240.06 1514.29 Z" fill="#000000" fill-rule="nonzero" fill-opacity="1" /><path clip-path="url(#clip470)" d="M1280.17 1517.37 Q1276.56 1517.37 1274.73 1520.93 Q1272.93 1524.47 1272.93 1531.6 Q1272.93 1538.71 1274.73 1542.27 Q1276.56 1545.82 1280.17 1545.82 Q1283.81 1545.82 1285.61 1542.27 Q1287.44 1538.71 1287.44 1531.6 Q1287.44 1524.47 1285.61 1520.93 Q1283.81 1517.37 1280.17 1517.37 M1280.17 1513.66 Q1285.98 1513.66 1289.04 1518.27 Q1292.12 1522.85 1292.12 1531.6 Q1292.12 1540.33 1289.04 1544.94 Q1285.98 1549.52 1280.17 1549.52 Q1274.36 1549.52 1271.28 1544.94 Q1268.23 1540.33 1268.23 1531.6 Q1268.23 1522.85 1271.28 1518.27 Q1274.36 1513.66 1280.17 1513.66 Z" fill="#000000" fill-rule="nonzero" fill-opacity="1" /><path clip-path="url(#clip470)" d="M1773.19 1514.29 L1795.41 1514.29 L1795.41 1516.28 L1782.87 1548.85 L1777.98 1548.85 L1789.79 1518.22 L1773.19 1518.22 L1773.19 1514.29 Z" fill="#000000" fill-rule="nonzero" fill-opacity="1" /><path clip-path="url(#clip470)" d="M1804.58 1514.29 L1822.94 1514.29 L1822.94 1518.22 L1808.86 1518.22 L1808.86 1526.7 Q1809.88 1526.35 1810.9 1526.19 Q1811.92 1526 1812.94 1526 Q1818.72 1526 1822.1 1529.17 Q1825.48 1532.34 1825.48 1537.76 Q1825.48 1543.34 1822.01 1546.44 Q1818.54 1549.52 1812.22 1549.52 Q1810.04 1549.52 1807.78 1549.15 Q1805.53 1548.78 1803.12 1548.04 L1803.12 1543.34 Q1805.21 1544.47 1807.43 1545.03 Q1809.65 1545.58 1812.13 1545.58 Q1816.13 1545.58 1818.47 1543.48 Q1820.81 1541.37 1820.81 1537.76 Q1820.81 1534.15 1818.47 1532.04 Q1816.13 1529.94 1812.13 1529.94 Q1810.25 1529.94 1808.38 1530.35 Q1806.53 1530.77 1804.58 1531.65 L1804.58 1514.29 Z" fill="#000000" fill-rule="nonzero" fill-opacity="1" /><path clip-path="url(#clip470)" d="M2292.93 1544.91 L2300.56 1544.91 L2300.56 1518.55 L2292.25 1520.21 L2292.25 1515.95 L2300.52 1514.29 L2305.19 1514.29 L2305.19 1544.91 L2312.83 1544.91 L2312.83 1548.85 L2292.93 1548.85 L2292.93 1544.91 Z" fill="#000000" fill-rule="nonzero" fill-opacity="1" /><path clip-path="url(#clip470)" d="M2332.28 1517.37 Q2328.67 1517.37 2326.84 1520.93 Q2325.03 1524.47 2325.03 1531.6 Q2325.03 1538.71 2326.84 1542.27 Q2328.67 1545.82 2332.28 1545.82 Q2335.91 1545.82 2337.72 1542.27 Q2339.55 1538.71 2339.55 1531.6 Q2339.55 1524.47 2337.72 1520.93 Q2335.91 1517.37 2332.28 1517.37 M2332.28 1513.66 Q2338.09 1513.66 2341.14 1518.27 Q2344.22 1522.85 2344.22 1531.6 Q2344.22 1540.33 2341.14 1544.94 Q2338.09 1549.52 2332.28 1549.52 Q2326.47 1549.52 2323.39 1544.94 Q2320.33 1540.33 2320.33 1531.6 Q2320.33 1522.85 2323.39 1518.27 Q2326.47 1513.66 2332.28 1513.66 Z" fill="#000000" fill-rule="nonzero" fill-opacity="1" /><path clip-path="url(#clip470)" d="M2362.44 1517.37 Q2358.83 1517.37 2357 1520.93 Q2355.19 1524.47 2355.19 1531.6 Q2355.19 1538.71 2357 1542.27 Q2358.83 1545.82 2362.44 1545.82 Q2366.07 1545.82 2367.88 1542.27 Q2369.71 1538.71 2369.71 1531.6 Q2369.71 1524.47 2367.88 1520.93 Q2366.07 1517.37 2362.44 1517.37 M2362.44 1513.66 Q2368.25 1513.66 2371.3 1518.27 Q2374.38 1522.85 2374.38 1531.6 Q2374.38 1540.33 2371.3 1544.94 Q2368.25 1549.52 2362.44 1549.52 Q2356.63 1549.52 2353.55 1544.94 Q2350.49 1540.33 2350.49 1531.6 Q2350.49 1522.85 2353.55 1518.27 Q2356.63 1513.66 2362.44 1513.66 Z" fill="#000000" fill-rule="nonzero" fill-opacity="1" /><polyline clip-path="url(#clip470)" style="stroke:#000000; stroke-linecap:round; stroke-linejoin:round; stroke-width:4; stroke-opacity:1; fill:none" points="156.598,1486.45 156.598,47.2441 "/>
<polyline clip-path="url(#clip470)" style="stroke:#000000; stroke-linecap:round; stroke-linejoin:round; stroke-width:4; stroke-opacity:1; fill:none" points="156.598,1200.68 175.496,1200.68 "/>
<polyline clip-path="url(#clip470)" style="stroke:#000000; stroke-linecap:round; stroke-linejoin:round; stroke-width:4; stroke-opacity:1; fill:none" points="156.598,902.482 175.496,902.482 "/>
<polyline clip-path="url(#clip470)" style="stroke:#000000; stroke-linecap:round; stroke-linejoin:round; stroke-width:4; stroke-opacity:1; fill:none" points="156.598,604.28 175.496,604.28 "/>
<polyline clip-path="url(#clip470)" style="stroke:#000000; stroke-linecap:round; stroke-linejoin:round; stroke-width:4; stroke-opacity:1; fill:none" points="156.598,306.078 175.496,306.078 "/>
<path clip-path="url(#clip470)" d="M65.0198 1186.48 Q61.4087 1186.48 59.58 1190.05 Q57.7745 1193.59 57.7745 1200.72 Q57.7745 1207.83 59.58 1211.39 Q61.4087 1214.93 65.0198 1214.93 Q68.6541 1214.93 70.4596 1211.39 Q72.2883 1207.83 72.2883 1200.72 Q72.2883 1193.59 70.4596 1190.05 Q68.6541 1186.48 65.0198 1186.48 M65.0198 1182.78 Q70.83 1182.78 73.8855 1187.39 Q76.9642 1191.97 76.9642 1200.72 Q76.9642 1209.45 73.8855 1214.05 Q70.83 1218.64 65.0198 1218.64 Q59.2097 1218.64 56.131 1214.05 Q53.0754 1209.45 53.0754 1200.72 Q53.0754 1191.97 56.131 1187.39 Q59.2097 1182.78 65.0198 1182.78 Z" fill="#000000" fill-rule="nonzero" fill-opacity="1" /><path clip-path="url(#clip470)" d="M85.1818 1212.08 L90.066 1212.08 L90.066 1217.96 L85.1818 1217.96 L85.1818 1212.08 Z" fill="#000000" fill-rule="nonzero" fill-opacity="1" /><path clip-path="url(#clip470)" d="M104.279 1214.03 L120.598 1214.03 L120.598 1217.96 L98.6539 1217.96 L98.6539 1214.03 Q101.316 1211.27 105.899 1206.64 Q110.506 1201.99 111.686 1200.65 Q113.932 1198.13 114.811 1196.39 Q115.714 1194.63 115.714 1192.94 Q115.714 1190.19 113.77 1188.45 Q111.848 1186.71 108.746 1186.71 Q106.547 1186.71 104.094 1187.48 Q101.663 1188.24 98.8854 1189.79 L98.8854 1185.07 Q101.709 1183.94 104.163 1183.36 Q106.617 1182.78 108.654 1182.78 Q114.024 1182.78 117.219 1185.46 Q120.413 1188.15 120.413 1192.64 Q120.413 1194.77 119.603 1196.69 Q118.816 1198.59 116.709 1201.18 Q116.131 1201.85 113.029 1205.07 Q109.927 1208.27 104.279 1214.03 Z" fill="#000000" fill-rule="nonzero" fill-opacity="1" /><path clip-path="url(#clip470)" d="M62.9365 888.281 Q59.3254 888.281 57.4967 891.846 Q55.6912 895.387 55.6912 902.517 Q55.6912 909.623 57.4967 913.188 Q59.3254 916.73 62.9365 916.73 Q66.5707 916.73 68.3763 913.188 Q70.205 909.623 70.205 902.517 Q70.205 895.387 68.3763 891.846 Q66.5707 888.281 62.9365 888.281 M62.9365 884.577 Q68.7467 884.577 71.8022 889.184 Q74.8809 893.767 74.8809 902.517 Q74.8809 911.244 71.8022 915.85 Q68.7467 920.433 62.9365 920.433 Q57.1264 920.433 54.0477 915.85 Q50.9921 911.244 50.9921 902.517 Q50.9921 893.767 54.0477 889.184 Q57.1264 884.577 62.9365 884.577 Z" fill="#000000" fill-rule="nonzero" fill-opacity="1" /><path clip-path="url(#clip470)" d="M83.0984 913.882 L87.9827 913.882 L87.9827 919.762 L83.0984 919.762 L83.0984 913.882 Z" fill="#000000" fill-rule="nonzero" fill-opacity="1" /><path clip-path="url(#clip470)" d="M111.015 889.276 L99.2095 907.725 L111.015 907.725 L111.015 889.276 M109.788 885.202 L115.668 885.202 L115.668 907.725 L120.598 907.725 L120.598 911.614 L115.668 911.614 L115.668 919.762 L111.015 919.762 L111.015 911.614 L95.4132 911.614 L95.4132 907.1 L109.788 885.202 Z" fill="#000000" fill-rule="nonzero" fill-opacity="1" /><path clip-path="url(#clip470)" d="M63.2606 590.079 Q59.6495 590.079 57.8208 593.643 Q56.0152 597.185 56.0152 604.315 Q56.0152 611.421 57.8208 614.986 Q59.6495 618.528 63.2606 618.528 Q66.8948 618.528 68.7004 614.986 Q70.5291 611.421 70.5291 604.315 Q70.5291 597.185 68.7004 593.643 Q66.8948 590.079 63.2606 590.079 M63.2606 586.375 Q69.0707 586.375 72.1263 590.981 Q75.205 595.565 75.205 604.315 Q75.205 613.041 72.1263 617.648 Q69.0707 622.231 63.2606 622.231 Q57.4504 622.231 54.3717 617.648 Q51.3162 613.041 51.3162 604.315 Q51.3162 595.565 54.3717 590.981 Q57.4504 586.375 63.2606 586.375 Z" fill="#000000" fill-rule="nonzero" fill-opacity="1" /><path clip-path="url(#clip470)" d="M83.4225 615.68 L88.3067 615.68 L88.3067 621.56 L83.4225 621.56 L83.4225 615.68 Z" fill="#000000" fill-rule="nonzero" fill-opacity="1" /><path clip-path="url(#clip470)" d="M109.071 602.417 Q105.922 602.417 104.071 604.569 Q102.242 606.722 102.242 610.472 Q102.242 614.199 104.071 616.375 Q105.922 618.528 109.071 618.528 Q112.219 618.528 114.047 616.375 Q115.899 614.199 115.899 610.472 Q115.899 606.722 114.047 604.569 Q112.219 602.417 109.071 602.417 M118.353 587.764 L118.353 592.023 Q116.594 591.19 114.788 590.75 Q113.006 590.31 111.246 590.31 Q106.617 590.31 104.163 593.435 Q101.733 596.56 101.385 602.879 Q102.751 600.866 104.811 599.801 Q106.871 598.713 109.348 598.713 Q114.557 598.713 117.566 601.884 Q120.598 605.032 120.598 610.472 Q120.598 615.796 117.45 619.014 Q114.302 622.231 109.071 622.231 Q103.075 622.231 99.9039 617.648 Q96.7326 613.041 96.7326 604.315 Q96.7326 596.12 100.621 591.259 Q104.51 586.375 111.061 586.375 Q112.82 586.375 114.603 586.722 Q116.408 587.069 118.353 587.764 Z" fill="#000000" fill-rule="nonzero" fill-opacity="1" /><path clip-path="url(#clip470)" d="M63.5152 291.877 Q59.9041 291.877 58.0754 295.441 Q56.2699 298.983 56.2699 306.113 Q56.2699 313.219 58.0754 316.784 Q59.9041 320.325 63.5152 320.325 Q67.1494 320.325 68.955 316.784 Q70.7837 313.219 70.7837 306.113 Q70.7837 298.983 68.955 295.441 Q67.1494 291.877 63.5152 291.877 M63.5152 288.173 Q69.3254 288.173 72.3809 292.779 Q75.4596 297.363 75.4596 306.113 Q75.4596 314.839 72.3809 319.446 Q69.3254 324.029 63.5152 324.029 Q57.7051 324.029 54.6264 319.446 Q51.5708 314.839 51.5708 306.113 Q51.5708 297.363 54.6264 292.779 Q57.7051 288.173 63.5152 288.173 Z" fill="#000000" fill-rule="nonzero" fill-opacity="1" /><path clip-path="url(#clip470)" d="M83.6771 317.478 L88.5614 317.478 L88.5614 323.358 L83.6771 323.358 L83.6771 317.478 Z" fill="#000000" fill-rule="nonzero" fill-opacity="1" /><path clip-path="url(#clip470)" d="M108.746 306.946 Q105.413 306.946 103.492 308.728 Q101.594 310.511 101.594 313.636 Q101.594 316.761 103.492 318.543 Q105.413 320.325 108.746 320.325 Q112.08 320.325 114.001 318.543 Q115.922 316.737 115.922 313.636 Q115.922 310.511 114.001 308.728 Q112.103 306.946 108.746 306.946 M104.071 304.955 Q101.061 304.214 99.3715 302.154 Q97.7048 300.094 97.7048 297.131 Q97.7048 292.988 100.645 290.58 Q103.608 288.173 108.746 288.173 Q113.908 288.173 116.848 290.58 Q119.788 292.988 119.788 297.131 Q119.788 300.094 118.098 302.154 Q116.432 304.214 113.445 304.955 Q116.825 305.742 118.7 308.034 Q120.598 310.325 120.598 313.636 Q120.598 318.659 117.52 321.344 Q114.464 324.029 108.746 324.029 Q103.029 324.029 99.9502 321.344 Q96.8947 318.659 96.8947 313.636 Q96.8947 310.325 98.7928 308.034 Q100.691 305.742 104.071 304.955 M102.358 297.571 Q102.358 300.256 104.024 301.761 Q105.714 303.265 108.746 303.265 Q111.756 303.265 113.445 301.761 Q115.158 300.256 115.158 297.571 Q115.158 294.886 113.445 293.381 Q111.756 291.877 108.746 291.877 Q105.714 291.877 104.024 293.381 Q102.358 294.886 102.358 297.571 Z" fill="#000000" fill-rule="nonzero" fill-opacity="1" /><polyline clip-path="url(#clip471)" style="stroke:#009af9; stroke-linecap:round; stroke-linejoin:round; stroke-width:4; stroke-opacity:1; fill:none" points="218.754,1445.72 240.113,1392.76 261.472,1339.8 282.831,1287.47 304.191,1235.15 325.55,1183.85 346.909,1132.57 368.268,1082.69 389.628,1032.82 410.987,984.713 432.346,936.611 453.705,890.576 475.065,844.551 496.424,800.855 517.783,757.173 539.142,716.033 560.502,674.91 581.861,636.491 603.22,598.096 624.579,562.513 645.939,526.963 667.298,494.283 688.657,461.646 710.016,431.889 731.376,402.189 752.735,375.333 774.094,348.553 795.453,324.541 816.813,300.628 838.172,279.374 859.531,258.246 880.89,239.641 902.25,221.196 923.609,205.115 944.968,189.236 966.327,175.547 987.686,162.111 1009.05,150.679 1030.4,139.563 1051.76,130.261 1073.12,121.347 1094.48,114.06 1115.84,107.245 1137.2,101.872 1158.56,97.0694 1179.92,93.5329 1201.28,90.6779 1222.64,88.9235 1244,87.9763 1265.36,87.9763 1286.72,88.9235 1308.08,90.6779 1329.43,93.5329 1350.79,97.0694 1372.15,101.872 1393.51,107.245 1414.87,114.06 1436.23,121.347 1457.59,130.261 1478.95,139.563 1500.31,150.679 1521.67,162.111 1543.03,175.547 1564.39,189.236 1585.75,205.115 1607.1,221.196 1628.46,239.641 1649.82,258.246 1671.18,279.374 1692.54,300.628 1713.9,324.541 1735.26,348.553 1756.62,375.333 1777.98,402.189 1799.34,431.889 1820.7,461.646 1842.06,494.283 1863.42,526.963 1884.77,562.513 1906.13,598.096 1927.49,636.491 1948.85,674.91 1970.21,716.033 1991.57,757.173 2012.93,800.855 2034.29,844.551 2055.65,890.576 2077.01,936.611 2098.37,984.713 2119.73,1032.82 2141.09,1082.69 2162.45,1132.57 2183.8,1183.85 2205.16,1235.15 2226.52,1287.47 2247.88,1339.8 2269.24,1392.76 2290.6,1445.72 "/>
<path clip-path="url(#clip470)" d="M2007.5 198.898 L2279.55 198.898 L2279.55 95.2176 L2007.5 95.2176  Z" fill="#ffffff" fill-rule="evenodd" fill-opacity="1"/>
<polyline clip-path="url(#clip470)" style="stroke:#000000; stroke-linecap:round; stroke-linejoin:round; stroke-width:4; stroke-opacity:1; fill:none" points="2007.5,198.898 2279.55,198.898 2279.55,95.2176 2007.5,95.2176 2007.5,198.898 "/>
<polyline clip-path="url(#clip470)" style="stroke:#009af9; stroke-linecap:round; stroke-linejoin:round; stroke-width:4; stroke-opacity:1; fill:none" points="2031.91,147.058 2178.32,147.058 "/>
<path clip-path="url(#clip470)" d="M2216.56 166.745 Q2214.76 171.375 2213.04 172.787 Q2211.33 174.199 2208.46 174.199 L2205.06 174.199 L2205.06 170.634 L2207.56 170.634 Q2209.32 170.634 2210.29 169.8 Q2211.26 168.967 2212.44 165.865 L2213.2 163.921 L2202.72 138.412 L2207.23 138.412 L2215.33 158.689 L2223.44 138.412 L2227.95 138.412 L2216.56 166.745 Z" fill="#000000" fill-rule="nonzero" fill-opacity="1" /><path clip-path="url(#clip470)" d="M2235.24 160.402 L2242.88 160.402 L2242.88 134.037 L2234.57 135.703 L2234.57 131.444 L2242.83 129.778 L2247.51 129.778 L2247.51 160.402 L2255.15 160.402 L2255.15 164.338 L2235.24 164.338 L2235.24 160.402 Z" fill="#000000" fill-rule="nonzero" fill-opacity="1" /></svg>
